<svg width="48" height="48" version="1.1" viewBox="0 0 12.7 12.7" xml:space="preserve" xmlns="http://www.w3.org/2000/svg"><path d="m4.0989 9.4998c0.64758-0.73462 1.2736-1.4885 1.9274-2.2175 0.56809 0.73751 1.1337 1.477 1.7002 2.2157 0.69309 9.392e-4 1.3862 6.199e-4 2.0793 0.00226-0.90618-1.1996-1.8152-2.397-2.7232-3.5952 0.77586-0.89442 1.5362-1.7445 2.2997-2.6437h-0.992c-0.58932 0.67348-1.1687 1.3564-1.7631 2.0251-0.51603-0.67306-1.0269-1.3503-1.5396-2.026h-2.1148c0.83736 1.1567 1.7231 2.2806 2.5927 3.4139-1.0771 1.2169-1.69 1.9664-2.477 2.8255zm3.886-0.59739c-1.2775-1.6846-2.5697-3.3581-3.8447-5.0446 0.22793 0.00171 0.45591 0 0.68387 0 1.9632 2.6117 3.7108 4.9022 3.8128 5.0446z"/></svg>
